<?xml version="1.0" encoding="UTF-8"?>
<svg xmlns="http://www.w3.org/2000/svg" width="310" height="310" viewBox="0 0 310 310">
  <path d="M 195 29 L 195 71 L 198 74 L 240 74 Z M 41 26 L 34 35 L 34 262 L 36 266 L 44 272 L 169 272 L 154 253 L 146 231 L 145 210 L 151 186 L 163 167 L 173 157 L 193 145 L 217 139 L 242 141 L 242 92 L 191 92 L 186 90 L 179 83 L 177 77 L 177 24 L 47 24 Z M 68 203 L 128 202 L 133 212 L 126 220 L 69 220 Z M 68 173 L 69 156 L 149 156 L 152 161 L 142 174 Z M 208 113 L 208 125 L 205 128 L 68 127 L 69 111 L 204 110 Z" fill="#FFFFFF" fill-rule="evenodd"/>
  <path d="M 229 155 L 207 157 L 194 162 L 181 171 L 168 187 L 161 209 L 161 225 L 166 244 L 178 260 L 188 268 L 215 279 L 216 299 L 228 291 L 242 277 L 257 270 L 271 258 L 280 244 L 285 228 L 284 201 L 282 194 L 272 177 L 261 167 L 251 161 Z M 191 240 L 198 245 L 211 235 L 218 233 L 232 233 L 250 245 L 256 240 L 256 236 L 250 229 L 239 225 L 220 223 L 207 225 L 199 229 L 192 236 Z M 239 203 L 244 203 L 248 207 L 247 213 L 242 217 L 238 216 L 234 211 L 235 206 L 237 204 L 239 205 Z M 204 203 L 209 203 L 213 207 L 212 213 L 208 216 L 202 215 L 199 211 L 200 207 Z" fill="#00d07d" fill-rule="evenodd"/>
</svg>
