<?xml version="1.0" encoding="UTF-8"?>
<svg version="1.1" xmlns="http://www.w3.org/2000/svg" width="1024" height="1024">
<path d="M0 0 C337.92 0 675.84 0 1024 0 C1024 337.92 1024 675.84 1024 1024 C686.08 1024 348.16 1024 0 1024 C0 686.08 0 348.16 0 0 Z " fill="#FDFDFD" transform="translate(0,0)"/>
<path d="M0 0 C0.65694693 -0.00115384 1.31389387 -0.00230769 1.99074829 -0.0034965 C4.18940502 -0.00614081 6.38798835 -0.00165906 8.58664131 0.00279331 C10.17986796 0.00235716 11.77309453 0.00148145 13.36632073 0.00020415 C17.74237972 -0.00203223 22.11841425 0.00196879 26.49447012 0.00698221 C31.21424515 0.01129879 35.93401879 0.00983942 40.65379524 0.00907993 C48.83047882 0.00855547 57.00715441 0.01169422 65.18383598 0.01731777 C77.00596005 0.0254432 88.82808026 0.02804906 100.65020682 0.02930576 C119.83060945 0.03149464 139.01100783 0.03815028 158.19140816 0.04760838 C176.82389492 0.05678674 195.45638053 0.0638655 214.08886909 0.06811619 C215.23728605 0.06837891 216.38570301 0.06864164 217.56892048 0.06891232 C223.3301641 0.07021735 229.09140772 0.07148106 234.85265136 0.07272422 C282.65144563 0.08309172 330.45023528 0.10070558 378.24902534 0.12304783 C378.2514137 0.91265841 378.25380205 1.70226898 378.25626278 2.51580715 C378.31547517 21.75509183 378.39106513 40.9942489 378.48474026 60.23339748 C378.52964911 69.53742303 378.56907506 78.84141073 378.59546089 88.14550877 C378.61848078 96.25776271 378.65192327 104.36989637 378.69772691 112.48205483 C378.7216054 116.7748476 378.74036932 121.06752162 378.74663925 125.36037922 C378.75271452 129.40697401 378.77280181 133.45326518 378.80330086 137.49974728 C378.81204214 138.97907809 378.81581183 140.45844865 378.81403351 141.93780422 C378.8011649 157.59274363 382.01894067 169.28029422 392.82715034 180.79492283 C400.79014373 188.44967131 411.7519243 194.21124863 422.9247303 194.28126621 C424.69420037 194.29592725 424.69420037 194.29592725 426.4994173 194.31088448 C427.80019372 194.31665473 429.10097013 194.32242498 430.44116402 194.32837009 C431.84325546 194.33808529 433.24534399 194.34823076 434.64742947 194.35877228 C438.40560342 194.3858375 442.16378908 194.40700582 445.92200661 194.42696476 C449.44725714 194.44657644 452.97246236 194.47149005 456.49768257 194.49597263 C466.81059609 194.56449933 477.12356483 194.62450144 487.43652534 194.68554783 C510.47465034 194.82992283 533.51277534 194.97429783 557.24902534 195.12304783 C557.24902534 248.91304783 557.24902534 302.70304783 557.24902534 358.12304783 C536.45902534 358.61804783 536.45902534 358.61804783 515.24902534 359.12304783 C506.02265908 360.48559137 497.22823979 361.85327674 488.24902534 364.12304783 C486.81478218 364.48172947 486.81478218 364.48172947 485.35156441 364.8476572 C479.25148066 366.40984823 473.23548311 368.17152662 467.24902534 370.12304783 C466.56404976 370.34541111 465.87907417 370.56777439 465.17334175 370.79687595 C435.18114947 380.77194114 407.7809644 397.39608406 384.69824409 418.86132908 C382.57184219 420.82494424 380.40168339 422.69910763 378.18652534 424.56054783 C339.19789557 458.73479214 315.14247228 514.51142963 310.62402534 565.43554783 C309.60505184 582.05407934 309.71716054 598.65480797 312.24902534 615.12304783 C312.38904976 616.0898447 312.52907417 617.05664158 312.67334175 618.05273533 C317.52271111 650.68400578 329.11855215 683.04971032 348.24902534 710.12304783 C349.07020241 711.32167472 349.89048524 712.52091466 350.70996284 713.72070408 C355.74718238 721.01374305 361.19344938 727.63735619 367.24902534 734.12304783 C368.46277589 735.51417319 369.67143787 736.90976108 370.87402534 738.31054783 C376.05565049 744.24261523 381.62894306 749.56517918 387.64746284 754.64257908 C389.24902534 756.12304783 389.24902534 756.12304783 390.24902534 758.12304783 C339.33422382 758.1917109 288.41942697 758.24457508 237.50458825 758.27624382 C231.49394481 758.27999595 225.48330146 758.28387891 219.47265816 758.28784275 C218.27604474 758.28862968 217.07943132 758.28941661 215.84655689 758.29022739 C196.46988531 758.30328214 177.09324043 758.32693638 157.7165847 758.35450622 C137.8350999 758.38255847 117.95362909 758.39922371 98.07212532 758.40531331 C85.80369006 758.40943012 73.53533026 758.42243392 61.26691823 758.44679723 C52.85458804 758.46265217 44.44229688 758.46744872 36.02995284 758.46355196 C31.17612355 758.46163005 26.32242615 758.46458127 21.4686203 758.48066425 C17.02207757 758.49529005 12.5757551 758.49598278 8.12920211 758.48574451 C6.52337762 758.48447959 4.91753924 758.48826238 3.31174196 758.49769738 C-12.82397838 758.58696633 -25.54984303 755.19822673 -37.62597466 743.87304783 C-42.07034772 739.17056235 -44.96521761 733.92290265 -47.75097466 728.12304783 C-48.11320122 727.47980564 -48.47542778 726.83656345 -48.84863091 726.17382908 C-51.50149169 720.14460001 -50.89305938 713.25716376 -50.88240242 706.80849934 C-50.88445505 705.6581665 -50.88650769 704.50783367 -50.88862252 703.32264227 C-50.89330864 700.12433115 -50.89351827 696.92605561 -50.89184493 693.72774264 C-50.89111338 690.25014938 -50.89613785 686.77256365 -50.90041995 683.29497361 C-50.90799846 676.39526655 -50.91019293 669.49556723 -50.91074901 662.59585644 C-50.91166278 654.33241673 -50.91833068 646.06898418 -50.92509583 637.80554755 C-50.94115597 617.83403831 -50.94705889 597.86252983 -50.95184458 577.89101529 C-50.95418027 568.44462936 -50.95778286 558.99824403 -50.96153996 549.55185857 C-50.97437477 517.22009359 -50.98509458 484.88832895 -50.98854256 452.55656147 C-50.98876419 450.526984 -50.98898597 448.49740653 -50.98920791 446.46782906 C-50.98942855 444.43333766 -50.98964903 442.39884625 -50.98986936 440.36435485 C-50.99031191 436.28277985 -50.99075903 432.20120486 -50.99120903 428.11962986 C-50.99131842 427.10763658 -50.99142781 426.0956433 -50.99154052 425.05298356 C-50.99517212 392.23024086 -51.01109641 359.40752025 -51.03439939 326.58478601 C-51.05898816 291.88761856 -51.07271493 257.19046374 -51.07391047 222.49328732 C-51.07408193 218.6854488 -51.07429736 214.87761028 -51.07454491 211.06977177 C-51.07460068 210.13216582 -51.07465644 209.19455988 -51.0747139 208.22854163 C-51.0758651 193.13220585 -51.08689284 178.0358927 -51.10143196 162.93956457 C-51.11578892 147.7702664 -51.11903845 132.60099728 -51.11099198 117.43169418 C-51.10653214 108.41772742 -51.11041054 99.40385437 -51.12623049 90.3898999 C-51.13597073 84.36889322 -51.13481139 78.34795229 -51.12479426 72.32694624 C-51.11939536 68.89627687 -51.11871408 65.46578763 -51.13130298 62.03513309 C-51.14234481 58.33691218 -51.13494231 54.63916833 -51.12291145 50.94096088 C-51.13050665 49.87959555 -51.13810184 48.81823022 -51.14592719 47.7247023 C-51.0697023 36.89537745 -48.32867534 28.68646947 -41.75097466 20.12304783 C-41.22503716 19.43211033 -40.69909966 18.74117283 -40.15722466 18.02929783 C-29.97513004 5.5418233 -15.92373261 -0.00518013 0 0 Z " fill="#1E1E1E" transform="translate(169.75097465515137,119.87695217132568)"/>
<path d="M0 0 C3.30673832 2.88606401 6.49275132 5.88072479 9.62451172 8.95507812 C11.10105685 10.39657174 12.6021539 11.80796734 14.109375 13.21728516 C25.53223678 24.06250303 35.12416619 36.84205433 43.10546875 50.40087891 C43.78738281 51.51720703 44.46929688 52.63353516 45.171875 53.78369141 C64.00183728 85.29818594 71.31998774 119.16306653 71.35546875 155.52587891 C71.35647583 156.25043274 71.35748291 156.97498657 71.35852051 157.72149658 C71.3484889 168.43849974 70.80615656 178.77983324 68.54541016 189.28222656 C68.09222565 191.46465449 67.72407488 193.65000878 67.3671875 195.85009766 C61.6737218 228.91802846 44.21824417 259.58113416 22.10546875 284.40087891 C21.46996094 285.14595703 20.83445312 285.89103516 20.1796875 286.65869141 C11.76811499 296.52053503 2.42541089 304.63521278 -7.89453125 312.40087891 C-8.4580127 312.83045898 -9.02149414 313.26003906 -9.60205078 313.70263672 C-22.81753443 323.73296874 -37.14449693 331.54878505 -52.44140625 337.92822266 C-59.22232879 340.82008668 -64.53907378 344.26118992 -70.26953125 348.83837891 C-71.87801571 350.10643642 -73.48740801 351.37334314 -75.09765625 352.63916016 C-75.90267578 353.27289551 -76.70769531 353.90663086 -77.53710938 354.55957031 C-80.99664335 357.26170425 -84.50176071 359.90023948 -88.01953125 362.52587891 C-88.67244141 363.01386963 -89.32535156 363.50186035 -89.99804688 364.00463867 C-92.61491748 365.95855578 -95.23426655 367.9091364 -97.85351562 369.85986328 C-106.33997749 376.18459953 -114.75365057 382.59107835 -123.09521484 389.10595703 C-129.04002515 393.74693467 -135.02639058 398.3310437 -141.02709961 402.89941406 C-145.82074484 406.55686798 -150.54252982 410.28648584 -155.20703125 414.10791016 C-156.89453125 415.40087891 -156.89453125 415.40087891 -157.89453125 415.40087891 C-157.89453125 394.61087891 -157.89453125 373.82087891 -157.89453125 352.40087891 C-160.20453125 352.40087891 -162.51453125 352.40087891 -164.89453125 352.40087891 C-167.64818247 351.95486498 -170.30689897 351.45754026 -173.01953125 350.83837891 C-173.79232422 350.66274414 -174.56511719 350.48710938 -175.36132812 350.30615234 C-228.83085604 337.61087337 -276.78723844 304.22121299 -305.70703125 257.33837891 C-318.06846519 236.74920979 -327.4415944 215.07220795 -331.89453125 191.40087891 C-332.14009766 190.10585449 -332.14009766 190.10585449 -332.390625 188.78466797 C-334.65817757 176.18663316 -335.17547485 163.66762339 -335.20703125 150.90087891 C-335.21070709 150.19057526 -335.21438293 149.48027161 -335.21817017 148.7484436 C-335.25465033 135.27282728 -333.88174638 122.20761916 -330.64453125 109.08837891 C-330.31702881 107.75492432 -330.31702881 107.75492432 -329.98291016 106.39453125 C-318.74343371 61.76275323 -292.66811967 22.09580062 -255.89453125 -5.59912109 C-255.34700195 -6.01806641 -254.79947266 -6.43701172 -254.23535156 -6.86865234 C-238.27516806 -19.03430946 -220.66648906 -28.55751723 -201.89453125 -35.59912109 C-201.23259766 -35.84742676 -200.57066406 -36.09573242 -199.88867188 -36.3515625 C-133.07655449 -60.92085032 -54.16087864 -45.71569009 0 0 Z " fill="#52B268" transform="translate(841.89453125,551.59912109375)"/>
<path d="M0 0 C48.51131093 -0.135624 97.02257638 -0.24304994 145.53403929 -0.30639198 C151.26056752 -0.31389626 156.98709538 -0.32166219 162.71362305 -0.32958984 C163.8536771 -0.33116371 164.99373114 -0.33273757 166.16833229 -0.33435912 C184.63071126 -0.36047076 203.09297819 -0.40778033 221.55529069 -0.46291678 C240.49772503 -0.51901549 259.44010067 -0.55235051 278.38261467 -0.56453097 C290.07228456 -0.57276585 301.76163779 -0.59877976 313.45121021 -0.6474988 C321.46595798 -0.67920167 329.48054192 -0.68880347 337.49534785 -0.68100826 C342.12036363 -0.6771632 346.74482586 -0.68307889 351.36974335 -0.71523285 C355.6061263 -0.74447036 359.84158445 -0.74588129 364.07801033 -0.72539337 C365.60846162 -0.72286198 367.13897103 -0.73044179 368.66930824 -0.74929909 C377.54867477 -0.85232891 384.26108258 -0.32100752 391 6 C395.53251557 10.64965891 398.01186982 14.80414337 398.296875 21.41015625 C397.59498034 27.53326358 394.57478755 32.96603303 389.9375 37 C385.14880834 40.26038581 382.40317038 41.24993671 376.52635574 41.24609566 C375.87509324 41.24840335 375.22383075 41.25071103 374.55283302 41.25308865 C372.36139351 41.25840009 370.17024541 41.24939524 367.9788208 41.24050903 C366.39556934 41.24138087 364.81231816 41.24313144 363.22906852 41.24568737 C358.87126637 41.25016926 354.51356212 41.24214567 350.15577245 41.23213124 C345.45913902 41.22351116 340.76251131 41.22641588 336.06587219 41.22793579 C327.92624855 41.22898556 319.78665691 41.22269939 311.64704132 41.21146011 C299.87846205 41.19522048 288.1098983 41.18999868 276.34130904 41.18748413 C257.24852667 41.18310461 238.15576138 41.16978855 219.06298828 41.15087891 C200.51383551 41.13252675 181.96468736 41.11836699 163.41552734 41.10986328 C161.70107473 41.10907511 161.70107473 41.10907511 159.9519867 41.10827102 C154.21816998 41.10566098 148.48435322 41.10313356 142.75053644 41.10064721 C95.16701187 41.07990672 47.58350815 41.04412458 0 41 C0 27.47 0 13.94 0 0 Z " fill="#FBFBFB" transform="translate(225,374)"/>
<path d="M0 0 C3.30673832 2.88606401 6.49275132 5.88072479 9.62451172 8.95507812 C11.10105685 10.39657174 12.6021539 11.80796734 14.109375 13.21728516 C25.53223678 24.06250303 35.12416619 36.84205433 43.10546875 50.40087891 C43.78738281 51.51720703 44.46929688 52.63353516 45.171875 53.78369141 C64.00183728 85.29818594 71.31998774 119.16306653 71.35546875 155.52587891 C71.35647583 156.25043274 71.35748291 156.97498657 71.35852051 157.72149658 C71.3484889 168.43849974 70.80615656 178.77983324 68.54541016 189.28222656 C68.09222565 191.46465449 67.72407488 193.65000878 67.3671875 195.85009766 C61.6737218 228.91802846 44.21824417 259.58113416 22.10546875 284.40087891 C21.46996094 285.14595703 20.83445312 285.89103516 20.1796875 286.65869141 C11.76811499 296.52053503 2.42541089 304.63521278 -7.89453125 312.40087891 C-8.4580127 312.83045898 -9.02149414 313.26003906 -9.60205078 313.70263672 C-22.81753443 323.73296874 -37.14449693 331.54878505 -52.44140625 337.92822266 C-59.22232879 340.82008668 -64.53907378 344.26118992 -70.26953125 348.83837891 C-71.87801571 350.10643642 -73.48740801 351.37334314 -75.09765625 352.63916016 C-75.90267578 353.27289551 -76.70769531 353.90663086 -77.53710938 354.55957031 C-80.99664335 357.26170425 -84.50176071 359.90023948 -88.01953125 362.52587891 C-88.67244141 363.01386963 -89.32535156 363.50186035 -89.99804688 364.00463867 C-92.61491748 365.95855578 -95.23426655 367.9091364 -97.85351562 369.85986328 C-106.33997749 376.18459953 -114.75365057 382.59107835 -123.09521484 389.10595703 C-129.04002515 393.74693467 -135.02639058 398.3310437 -141.02709961 402.89941406 C-145.82074484 406.55686798 -150.54252982 410.28648584 -155.20703125 414.10791016 C-156.89453125 415.40087891 -156.89453125 415.40087891 -157.89453125 415.40087891 C-157.89453125 394.61087891 -157.89453125 373.82087891 -157.89453125 352.40087891 C-160.20453125 352.40087891 -162.51453125 352.40087891 -164.89453125 352.40087891 C-167.64818247 351.95486498 -170.30689897 351.45754026 -173.01953125 350.83837891 C-173.79232422 350.66274414 -174.56511719 350.48710938 -175.36132812 350.30615234 C-228.83085604 337.61087337 -276.78723844 304.22121299 -305.70703125 257.33837891 C-318.06846519 236.74920979 -327.4415944 215.07220795 -331.89453125 191.40087891 C-332.14009766 190.10585449 -332.14009766 190.10585449 -332.390625 188.78466797 C-334.65817757 176.18663316 -335.17547485 163.66762339 -335.20703125 150.90087891 C-335.21070709 150.19057526 -335.21438293 149.48027161 -335.21817017 148.7484436 C-335.25465033 135.27282728 -333.88174638 122.20761916 -330.64453125 109.08837891 C-330.31702881 107.75492432 -330.31702881 107.75492432 -329.98291016 106.39453125 C-318.74343371 61.76275323 -292.66811967 22.09580062 -255.89453125 -5.59912109 C-255.34700195 -6.01806641 -254.79947266 -6.43701172 -254.23535156 -6.86865234 C-238.27516806 -19.03430946 -220.66648906 -28.55751723 -201.89453125 -35.59912109 C-201.23259766 -35.84742676 -200.57066406 -36.09573242 -199.88867188 -36.3515625 C-133.07655449 -60.92085032 -54.16087864 -45.71569009 0 0 Z M-264.89453125 15.40087891 C-265.47299805 15.93406738 -266.05146484 16.46725586 -266.64746094 17.01660156 C-280.53268642 29.98661224 -291.69770155 44.80559912 -300.89453125 61.40087891 C-301.27593262 62.08150391 -301.65733398 62.76212891 -302.05029297 63.46337891 C-325.5730184 105.67818348 -331.58866445 155.55704407 -319.11572266 202.32080078 C-307.98310484 241.27471211 -284.78179081 276.39638849 -252.89453125 301.40087891 C-251.9921875 302.12017578 -251.08984375 302.83947266 -250.16015625 303.58056641 C-221.82918585 325.57228653 -184.33808553 343.40087891 -147.89453125 343.40087891 C-147.89453125 360.23087891 -147.89453125 377.06087891 -147.89453125 394.40087891 C-144.87287241 392.89004949 -142.74791349 391.63966445 -140.1640625 389.60009766 C-139.45241943 389.04185303 -138.74077637 388.4836084 -138.00756836 387.90844727 C-137.24839111 387.30782471 -136.48921387 386.70720215 -135.70703125 386.08837891 C-134.07989616 384.81173916 -132.45228082 383.53571129 -130.82421875 382.26025391 C-130.00018555 381.61378906 -129.17615234 380.96732422 -128.32714844 380.30126953 C-124.68224917 377.45382915 -121.00964874 374.64336327 -117.33203125 371.83837891 C-116.63859619 371.30905762 -115.94516113 370.77973633 -115.23071289 370.234375 C-113.82765676 369.16366016 -112.42441798 368.09318461 -111.02099609 367.02294922 C-107.39341747 364.25582725 -103.76890559 361.48469581 -100.14453125 358.71337891 C-99.43578857 358.17148926 -98.7270459 357.62959961 -97.99682617 357.07128906 C-94.24381761 354.20085423 -90.49228804 351.32854584 -86.74853516 348.44604492 C-85.16262049 347.22728036 -83.57156934 346.01520916 -81.98046875 344.80322266 C-79.9104661 343.1917649 -77.87358746 341.53690193 -75.87109375 339.84228516 C-69.10596905 334.17960931 -62.39774879 330.6198966 -54.20043945 327.36914062 C-7.1692378 308.71035364 27.65277698 270.2092711 47.87890625 224.68994141 C51.36080227 216.58635951 54.33642517 208.45919032 56.23046875 199.83837891 C56.39587158 199.10731934 56.56127441 198.37625977 56.73168945 197.62304688 C57.19731184 195.55060228 57.65235943 193.47608785 58.10546875 191.40087891 C58.32332031 190.43537109 58.54117187 189.46986328 58.765625 188.47509766 C68.54414088 143.05932389 57.62188804 92.43926153 33.1171875 53.60400391 C27.63163913 45.11338226 21.82779088 36.96482299 15.10546875 29.40087891 C14.33614014 28.53317871 14.33614014 28.53317871 13.55126953 27.64794922 C-19.14293439 -8.98088184 -66.54937777 -33.66323628 -115.89648438 -36.46582031 C-172.10850436 -38.96514954 -223.10117935 -23.12699358 -264.89453125 15.40087891 Z " fill="#212322" transform="translate(841.89453125,551.59912109375)"/>
<path d="M0 0 C32.09451437 -0.0904481 64.1889801 -0.16205063 96.28359175 -0.20426132 C100.07366424 -0.20926407 103.86373648 -0.21444137 107.65380859 -0.21972656 C108.78559917 -0.22130043 108.78559917 -0.22130043 109.94025421 -0.22290608 C122.15339146 -0.24030573 134.36645332 -0.27184098 146.57954586 -0.30861118 C159.11367733 -0.34603288 171.64776934 -0.36823845 184.18195438 -0.37635398 C191.91466744 -0.38183922 199.64716736 -0.39915641 207.3798148 -0.43166587 C213.31175448 -0.45533266 219.24358509 -0.45781672 225.17557335 -0.45243073 C227.6071879 -0.45353128 230.03881051 -0.46148937 232.47037697 -0.4768219 C235.7915828 -0.49673716 239.11187836 -0.49193272 242.43310547 -0.48101807 C243.39421266 -0.49266943 244.35531984 -0.5043208 245.34555149 -0.51632524 C252.50846244 -0.45274402 257.77417797 1.22376989 263.2421875 5.9296875 C267.6572142 11.18969539 270.10046027 14.8355014 269.875 21.9375 C268.70309137 28.92900035 265.1259521 33.29472734 259.87890625 37.73828125 C254.36500208 41.44096534 249.22186997 41.27912084 242.79386902 41.24050903 C241.75645815 41.24221788 240.71904728 41.24392673 239.65019971 41.24568737 C236.16931773 41.24898516 232.68862793 41.23797363 229.20776367 41.22705078 C226.71444707 41.22648673 224.22113013 41.22680311 221.72781372 41.22793579 C216.35744436 41.22839143 210.98713497 41.2227136 205.61678123 41.21146011 C197.85217872 41.19520011 190.08759969 41.1899966 182.32298199 41.18748413 C169.72515501 41.18310781 157.12735393 41.16980042 144.52954102 41.15087891 C132.29256317 41.13251847 120.05559236 41.11836277 107.81860352 41.10986328 C107.06420725 41.10933783 106.30981099 41.10881239 105.53255423 41.10827102 C101.74793742 41.10566093 97.96332056 41.10313351 94.17870367 41.10064721 C62.78578301 41.07991668 31.39289686 41.04414211 0 41 C0 27.47 0 13.94 0 0 Z " fill="#FBFBFB" transform="translate(225,494)"/>
<path d="M0 0 C4.52301204 3.78883541 8.84255253 7.69731938 13.00486755 11.87788391 C13.56621165 12.43766802 14.12755574 12.99745212 14.70591027 13.57419938 C16.56599459 15.43032929 18.42252478 17.28997169 20.27905273 19.1496582 C21.619763 20.48901206 22.96068562 21.82815338 24.30180359 23.167099 C27.9275775 26.78832984 31.55020036 30.41269742 35.17211413 34.03778863 C38.96359049 37.83180161 42.75751151 41.62336873 46.55104065 45.41532898 C52.9136749 51.77614667 59.27420342 58.13906428 65.63354492 64.50317383 C72.99526382 71.87034839 80.36059725 79.23389461 87.72779125 86.59559375 C94.05243589 92.91570934 100.37514095 99.23776033 106.69621044 105.56145161 C110.47220809 109.33901137 114.24888557 113.11588477 118.02731133 116.89101601 C121.57295045 120.43377896 125.1161583 123.97895522 128.65745735 127.52605629 C129.96114736 128.83107467 131.2657004 130.13523153 132.57115173 131.43848801 C134.34441829 133.20904642 136.11461475 134.98261633 137.88401794 136.7570343 C138.40841207 137.27919771 138.9328062 137.80136112 139.47309107 138.33934766 C143 141.88584926 143 141.88584926 143 143 C125.51916688 143.14026124 108.03850976 143.24601529 90.55724239 143.31087303 C82.44006967 143.34179027 74.3232469 143.38392939 66.20629883 143.45263672 C59.13021961 143.51250479 52.05439387 143.55116467 44.97806841 143.56453097 C41.23224633 143.57234246 37.4871493 143.59065476 33.74155998 143.63438034 C29.55646704 143.68283879 25.37262854 143.68393515 21.18725586 143.68115234 C19.95007309 143.702724 18.71289032 143.72429565 17.43821716 143.746521 C8.05740979 143.678978 8.05740979 143.678978 3.73829651 140.08242798 C0.3516958 136.64080321 -0.12471051 134.43793075 -0.12025452 129.6343689 C-0.12162918 128.49570877 -0.12300385 127.35704865 -0.12442017 126.18388367 C-0.12082489 124.92872452 -0.11722961 123.67356537 -0.11352539 122.38037109 C-0.11367142 121.06334702 -0.11381744 119.74632294 -0.1139679 118.38938904 C-0.11425551 114.77184069 -0.10836458 111.15432531 -0.10139394 107.53678465 C-0.09515442 103.75846237 -0.09455613 99.98013938 -0.09336853 96.20181274 C-0.09025698 89.04430505 -0.08204596 81.88681257 -0.07201904 74.72931159 C-0.06085243 66.58190116 -0.05534607 58.43449002 -0.05032361 50.28707385 C-0.03986321 33.52470698 -0.02226718 16.76235543 0 0 Z " fill="#1E1E1E" transform="translate(589,131)"/>
<path d="M0 0 C24.37399396 -0.09031522 48.74785231 -0.16399078 73.12197113 -0.20724869 C84.43944797 -0.22786848 95.75681341 -0.25597807 107.07421875 -0.30175781 C116.93917875 -0.34164326 126.80405807 -0.36743705 136.66909647 -0.37635398 C141.89194127 -0.3815658 147.11455527 -0.39380356 152.33732605 -0.42292023 C157.25552554 -0.45011619 162.17339963 -0.45843649 167.09166718 -0.45243073 C168.89438903 -0.45352909 170.69712203 -0.46145801 172.49977875 -0.4768219 C174.96716734 -0.49681568 177.43333822 -0.49190564 179.90075684 -0.48101807 C180.60895238 -0.49266943 181.31714793 -0.5043208 182.04680395 -0.51632524 C188.27246633 -0.44241068 193.31395676 1.72878969 198.0234375 5.7109375 C202.34405354 11.03053991 204.57283536 15.77609107 204.3828125 22.84765625 C203.42941687 28.20807454 200.40067678 32.635238 196.5625 36.375 C190.99181621 39.90762874 186.74918339 41.44163432 180.14126587 41.36076355 C179.36843148 41.36332682 178.59559708 41.3658901 177.79934347 41.36853105 C175.21969251 41.37345731 172.64063185 41.35699546 170.06103516 41.34057617 C168.20795709 41.33972965 166.35487802 41.34020554 164.50180054 41.34190369 C159.47743435 41.34276407 154.45328323 41.32513114 149.428967 41.30418181 C144.1759122 41.28542238 138.92285242 41.28366515 133.66976929 41.28010559 C123.72511796 41.27078299 113.78056563 41.24616623 103.83595788 41.21605712 C92.51319443 41.18251987 81.19042624 41.16602879 69.86762547 41.15097082 C46.57834947 41.1196169 23.28920915 41.06460206 0 41 C0 27.47 0 13.94 0 0 Z " fill="#FBFBFB" transform="translate(225,627)"/>
<path d="M0 0 C2.18139605 -0.00958434 4.36179831 -0.04058271 6.54296875 -0.07226562 C19.73905146 -0.1743503 32.07932713 1.73619677 44.34765625 6.86523438 C45.18868896 7.21078369 46.02972168 7.55633301 46.89624023 7.91235352 C65.74352339 15.89521626 83.60798403 28.46091123 94.34765625 46.24023438 C94.95272225 50.55132964 94.86386795 52.44870976 92.47265625 56.11523438 C89.93183711 58.65605351 89.03476031 59.16565049 85.46875 59.55273438 C82.34765625 59.24023438 82.34765625 59.24023438 80.2578125 57.55273438 C79.64808594 56.78960938 79.03835938 56.02648437 78.41015625 55.24023438 C77.72824219 54.41523437 77.04632812 53.59023438 76.34375 52.74023438 C75.68503906 51.91523437 75.02632812 51.09023438 74.34765625 50.24023438 C61.2546406 34.49282603 46.78774654 25.55681058 27.33764648 19.83789062 C25.57673388 19.30903354 23.83856939 18.70569035 22.10546875 18.09179688 C16.61825838 16.8483334 11.26772876 16.95176046 5.66015625 16.99023438 C4.55220703 16.9825 3.44425781 16.97476563 2.30273438 16.96679688 C-23.09691018 17.02617652 -43.89195842 26.7383146 -61.90234375 44.24023438 C-65.42961902 47.82842021 -68.55146544 51.49925344 -71.3984375 55.64648438 C-72.65234375 57.24023438 -72.65234375 57.24023438 -75.65234375 59.24023438 C-79.79629296 59.16488984 -81.93385175 58.86661202 -85.08984375 56.11523438 C-87.07086366 52.47015774 -87.03611412 50.35704376 -86.65234375 46.24023438 C-74.13658391 23.57576147 -49.36082408 10.02716711 -25.39013672 3.05371094 C-16.80915972 0.64326619 -8.90333322 0.02355379 0 0 Z " fill="#1F2220" transform="translate(706.65234375,725.759765625)"/>
<path d="M0 0 C5.01911397 4.68524829 7.98585506 9.24369491 8.375 16.1875 C8.20021615 22.35634168 6.44679305 28.18792742 2.3515625 32.89453125 C-4.08785788 38.67313775 -10.01414759 39.51780715 -18.546875 39.375 C-24.31169354 38.74895636 -27.76539316 36.57353179 -31.51953125 32.25 C-32.79744139 30.5412095 -33.93372756 28.84737899 -35 27 C-35.54527344 26.06220703 -35.54527344 26.06220703 -36.1015625 25.10546875 C-38.26894785 20.02624831 -37.91293946 14.30021757 -35.90234375 9.234375 C-32.05769501 2.38577404 -27.83731065 -1.43665122 -20.625 -4.375 C-13.09839167 -5.67269109 -6.30445776 -4.4197567 0 0 Z " fill="#1F211F" transform="translate(668,653)"/>
<path d="M0 0 C5.86325917 3.54196885 9.73146147 8.66687905 12.2265625 15.0078125 C13.63162351 21.56476388 12.04832503 26.95261477 8.859375 32.73828125 C5.61945001 37.24162196 1.46734227 40.26088591 -3.7734375 42.0078125 C-18.46471267 43.13365143 -18.46471267 43.13365143 -24.7734375 38.0078125 C-30.3059356 32.68165465 -32.7699166 27.88066219 -33.1484375 20.1328125 C-32.99413298 14.087706 -31.28940319 9.63469083 -27.08984375 5.25 C-19.39729796 -1.59884722 -9.92450522 -3.5504568 0 0 Z " fill="#1F211F" transform="translate(777.7734375,649.9921875)"/>
<path d="M0 0 C0.66 0.33 1.32 0.66 2 1 C0.88121617 2.17262904 -0.24523051 3.33795138 -1.375 4.5 C-2.00148438 5.1496875 -2.62796875 5.799375 -3.2734375 6.46875 C-5 8 -5 8 -7 8 C-7.20625 8.53625 -7.4125 9.0725 -7.625 9.625 C-9.57996944 13.0017654 -12.18223695 15.30474839 -15 18 C-15.66 17.67 -16.32 17.34 -17 17 C-15.29657414 15.09955869 -13.58752883 13.20471126 -11.875 11.3125 C-11.400625 10.78205078 -10.92625 10.25160156 -10.4375 9.70507812 C-7.18500869 6.12294242 -3.77952775 3.02250068 0 0 Z " fill="#333435" transform="translate(574,556)"/>
<path d="M0 0 C0.99 0.33 1.98 0.66 3 1 C0.36 3.64 -2.28 6.28 -5 9 C-5.66 8.67 -6.32 8.34 -7 8 C-4.69 5.36 -2.38 2.72 0 0 Z " fill="#2B2C2E" transform="translate(564,565)"/>
<path d="M0 0 C0.66 0.33 1.32 0.66 2 1 C0.02 3.31 -1.96 5.62 -4 8 C-4 4.09161134 -2.49432124 2.88405893 0 0 Z " fill="#202F24" transform="translate(639,653)"/>
<path d="M0 0 C0.33 0.99 0.66 1.98 1 3 C-1.97 5.475 -1.97 5.475 -5 8 C-3.8141763 4.62496331 -2.72426311 2.35277269 0 0 Z " fill="#2A2A2B" transform="translate(134,133)"/>
</svg>
