<?xml version="1.0" encoding="UTF-8"?>
<svg version="1.1" xmlns="http://www.w3.org/2000/svg" width="1254" height="1254">
<path d="M0 0 C413.82 0 827.64 0 1254 0 C1254 413.82 1254 827.64 1254 1254 C840.18 1254 426.36 1254 0 1254 C0 840.18 0 426.36 0 0 Z " fill="#0A1420" transform="translate(0,0)"/>
<path d="M0 0 C2.07294746 -0.00043698 4.14589486 -0.00131421 6.21884197 -0.00258917 C11.86982551 -0.00480925 17.52078984 -0.00084716 23.17177093 0.0041889 C29.28264034 0.00852917 35.39350876 0.00704444 41.50437927 0.00628662 C52.07688196 0.00576365 62.64937917 0.00885158 73.22187996 0.01452446 C84.30239962 0.0204546 95.3829168 0.02429305 106.46343803 0.02537727 C107.49936574 0.02548038 107.49936574 0.02548038 108.55622127 0.02558558 C112.06395139 0.02592394 115.5716815 0.02622531 119.07941162 0.02651245 C143.88293442 0.02860926 168.68645399 0.03533652 193.48997498 0.04481506 C217.57656334 0.05400897 241.66315083 0.06108794 265.7497406 0.06532288 C266.86468753 0.06552017 266.86468753 0.06552017 268.00215865 0.06572144 C275.46710167 0.06704003 282.93204469 0.06831584 290.39698772 0.0695603 C305.6020507 0.07209607 320.80711362 0.07491732 336.01217651 0.07791138 C336.71118156 0.07804867 337.4101866 0.07818596 338.13037361 0.07832741 C384.75748494 0.08751804 431.38459438 0.10338294 478.01170349 0.12025452 C478.01317005 1.16348751 478.01463661 2.2067205 478.01614761 3.28156662 C478.05284774 28.74152577 478.11243432 54.20135444 478.19560623 79.66120529 C478.23530638 91.97372894 478.26774456 104.28618951 478.28269958 116.59877014 C478.29576304 127.33848465 478.32284669 138.07805984 478.36631656 148.81769586 C478.38882623 154.49693586 478.40462051 160.17600471 478.40358734 165.85529327 C478.40283448 171.21682154 478.42103332 176.57797294 478.45287132 181.93940353 C478.46128829 183.89185487 478.46317716 185.8443489 478.45750618 187.79681015 C478.40277112 209.56591068 480.6471502 232.63812451 496.67576599 248.80775452 C507.12461 258.88822083 517.13852489 266.24048371 531.94920349 266.68275452 C533.70843523 266.74324017 535.46755908 266.80696347 537.22654724 266.87416077 C538.38851624 266.9100531 538.38851624 266.9100531 539.57395935 266.94667053 C542.01170349 267.12025452 542.01170349 267.12025452 544.81806946 267.61451721 C547.76850536 268.08174216 550.56510152 268.29831096 553.54759216 268.38563538 C554.63278137 268.4192215 555.71797058 268.45280762 556.83604431 268.4874115 C558.02194153 268.51964813 559.20783875 268.55188477 560.42967224 268.58509827 C562.34495728 268.64142929 562.34495728 268.64142929 564.29893494 268.69889832 C567.85005501 268.80257977 571.40131917 268.90020596 574.95264816 268.99643326 C577.20574043 269.05793295 579.45877754 269.12117384 581.71180725 269.18492126 C602.47651027 269.77070724 623.2429114 270.24462821 644.01170349 270.65931702 C645.11637781 270.68140039 646.22105213 270.70348377 647.35920143 270.72623634 C658.40144342 270.94625311 669.44377137 271.1607806 680.48634148 271.36369324 C684.65696213 271.44075213 688.8275367 271.52014921 692.99810791 271.59983444 C695.84981086 271.65332654 698.70156028 271.70328644 701.55332947 271.75309753 C713.05679534 271.96649849 724.52644306 272.43975631 736.01170349 273.12025452 C736.20980048 391.01677205 736.20980048 391.01677205 735.57420349 425.18275452 C735.55455536 426.266987 735.53490723 427.35121948 735.5146637 428.4683075 C735.40418901 434.32244345 735.25960296 440.1746114 735.08964539 446.02729797 C735.00028091 449.57353492 734.94816207 453.11969754 734.89402771 456.66664124 C734.83893319 459.23322607 734.78311753 461.79979554 734.72654724 464.36634827 C734.71458817 465.57629959 734.70262909 466.78625092 734.69030762 468.03286743 C734.64625038 469.72245827 734.64625038 469.72245827 734.6013031 471.44618225 C734.57525246 472.9457975 734.57525246 472.9457975 734.54867554 474.47570801 C733.86974514 477.8193886 732.65851783 479.02969552 730.01170349 481.12025452 C716.86781159 483.53987892 700.19892402 480.52588926 687.02017212 478.87002563 C680.84678664 478.09940342 674.75649177 477.95907622 668.53904724 477.95228577 C667.45773026 477.94895737 666.37641327 477.94562897 665.2623291 477.94219971 C662.98225832 477.93715959 660.70218023 477.93479048 658.42210388 477.93495178 C654.9837434 477.93277637 651.54571002 477.91461951 648.10740662 477.89564514 C636.22688641 477.86508363 624.74838954 478.210004 613.01170349 480.12025452 C611.35416182 480.35730651 609.69661135 480.59429695 608.03904724 480.83119202 C599.23786729 482.22331071 590.65804192 484.01468962 582.09275818 486.5138092 C580.59516711 486.95022593 579.09555729 487.37973673 577.5947113 487.80482483 C564.382091 491.51888628 564.382091 491.51888628 551.75559998 496.83631897 C548.85940252 498.19151983 545.93444452 499.30226047 542.93357849 500.40541077 C536.45733607 502.87651866 530.33174815 505.7730362 524.19920349 508.99525452 C523.13242371 509.55478821 522.06564392 510.1143219 520.96653748 510.69081116 C498.44124517 522.68763583 477.70311651 536.72880819 459.01170349 554.12025452 C457.7245301 555.25039275 456.43294744 556.3755316 455.13670349 557.49525452 C443.80456021 567.35343259 443.80456021 567.35343259 433.57029724 578.31556702 C432.05038798 580.07546196 430.45013643 581.64819559 428.76170349 583.24525452 C423.2535949 588.6795938 418.67731416 594.96655629 414.01170349 601.12025452 C413.54151794 601.74029358 413.0713324 602.36033264 412.5868988 602.99916077 C406.40192025 611.20014271 400.53508146 619.55518479 395.13865662 628.29701233 C394.38025219 629.52399765 393.61580198 630.74726437 392.84568787 631.9669342 C374.01555143 661.87634077 362.31354935 695.45677161 355.26170349 729.93275452 C355.06294617 730.8973761 354.86418884 731.86199768 354.65940857 732.85585022 C351.54242315 748.77478777 350.63408568 764.3709297 350.69920349 780.55775452 C350.70135864 781.52447083 350.70351379 782.49118713 350.70573425 783.48719788 C350.76065605 798.8792693 351.31927163 813.92898814 354.01170349 829.12025452 C354.30174255 830.76308411 354.30174255 830.76308411 354.59764099 832.43910217 C359.67790414 860.14143218 368.27354433 886.54404867 380.01170349 912.12025452 C380.42533142 913.02598206 380.83895935 913.93170959 381.26512146 914.86488342 C387.36697125 928.05481507 394.79117384 940.15174718 403.01170349 952.12025452 C403.46577576 952.78283264 403.91984802 953.44541077 404.38768005 954.12806702 C416.53500346 971.73662073 430.18208098 988.25774488 444.99949646 1003.67884827 C449.01170349 1007.90663289 449.01170349 1007.90663289 449.01170349 1010.12025452 C403.31337326 1010.1545122 357.61504181 1010.18635069 311.91670227 1010.2049408 C310.90118957 1010.20535497 310.90118957 1010.20535497 309.86516146 1010.20577751 C295.14978284 1010.21176417 280.4344041 1010.21730441 265.71902514 1010.22238518 C258.50196868 1010.22487972 251.28491225 1010.22747284 244.06785583 1010.2301178 C243.34969532 1010.23037932 242.6315348 1010.23064083 241.89161185 1010.23091028 C218.63955052 1010.23942368 195.38749895 1010.25443934 172.13544353 1010.27284896 C148.22875398 1010.29174237 124.32206982 1010.30403194 100.41537292 1010.3080845 C97.03398899 1010.30866075 93.65260507 1010.30931203 90.27122116 1010.310009 C89.60575624 1010.31014385 88.94029133 1010.31027869 88.2546608 1010.31041763 C76.91049727 1010.31292071 65.56635391 1010.32355146 54.2221974 1010.33608745 C44.12175814 1010.34667887 34.02133332 1010.34985025 23.92088892 1010.34725727 C18.0980236 1010.34597935 12.27520718 1010.34790529 6.45235062 1010.35866547 C1.11106233 1010.36846318 -4.23014459 1010.36884748 -9.57143678 1010.36205231 C-11.49368404 1010.36121359 -13.41593657 1010.36369507 -15.33817361 1010.37002088 C-32.38857029 1010.42282351 -48.69862118 1009.55683335 -64.98829651 1004.12025452 C-65.95251526 1003.82248108 -66.91673401 1003.52470764 -67.91017151 1003.21791077 C-82.28419393 998.48747683 -94.31647614 989.17206031 -101.98829651 976.12025452 C-104.34268485 971.27007 -105.3636351 967.80760162 -105.367796 962.33354598 C-105.37237565 961.68374488 -105.37695529 961.03394377 -105.38167371 960.36445172 C-105.39334508 958.19154946 -105.38373817 956.01927657 -105.37419987 953.84637165 C-105.37824081 952.26432 -105.38359305 950.68227126 -105.39013657 949.10022798 C-105.40433798 944.74010614 -105.39981802 940.38017204 -105.39230326 936.0200409 C-105.38740917 931.28129517 -105.39982223 926.54258991 -105.41003078 921.80385703 C-105.42550534 913.49424457 -105.42974222 905.18468456 -105.42666245 896.87505913 C-105.42209383 884.51827572 -105.43455922 872.16155048 -105.45028632 859.80477837 C-105.47932643 836.45281651 -105.48773978 813.10087437 -105.4894575 789.74889658 C-105.49083518 771.71760088 -105.49700525 753.68631294 -105.50655937 735.65501976 C-105.50925193 730.46807836 -105.51192137 725.28113696 -105.514584 720.09419554 C-105.51524715 718.80477038 -105.51591029 717.51534521 -105.51659353 716.18684656 C-105.53506088 679.90856753 -105.54691242 643.63029331 -105.5455637 607.35200977 C-105.54551636 605.96990775 -105.54546915 604.58780572 -105.54542207 603.20570369 C-105.54520192 596.96561874 -105.54493741 590.72553378 -105.54466042 584.48544883 C-105.54453705 581.70283369 -105.54441661 578.92021854 -105.54429648 576.1376034 C-105.54423529 574.74485412 -105.54417223 573.35210485 -105.5441073 571.95935557 C-105.54206664 527.92075389 -105.56401686 483.88222458 -105.60572815 439.84364319 C-105.61623123 428.74850136 -105.62663962 417.65335946 -105.63652134 406.55821705 C-105.63712996 405.87504327 -105.63773858 405.1918695 -105.63836565 404.48799349 C-105.65701126 383.43116556 -105.66830746 362.37434358 -105.6720953 341.31750774 C-105.67221515 340.65638137 -105.672335 339.995255 -105.67245849 339.3140945 C-105.67513319 324.1494321 -105.67570754 308.98477022 -105.67483848 293.82010764 C-105.67461458 288.63159446 -105.67446847 283.44308128 -105.67437553 278.2545681 C-105.67434057 276.97698848 -105.67430561 275.69940887 -105.67426959 274.38311472 C-105.6741772 253.80770594 -105.69334929 233.23235819 -105.71917233 212.65696757 C-105.74458131 191.98415814 -105.74758785 171.31143817 -105.72784436 150.63862178 C-105.71674353 138.3523165 -105.72229686 126.06628262 -105.75167139 113.78000599 C-105.76963264 105.57522955 -105.7658278 97.37065028 -105.74425989 89.16588298 C-105.73258259 84.48950582 -105.73038079 79.81365494 -105.75463194 75.1373143 C-105.77651719 70.87993758 -105.77060515 66.62352386 -105.74286034 62.36618956 C-105.73771145 60.83862624 -105.74253291 59.31098694 -105.75876397 57.78350118 C-105.85699656 47.87231337 -104.20880806 40.66610907 -98.98829651 32.12025452 C-98.30151723 30.86477256 -97.61631937 29.60842247 -96.93360901 28.35072327 C-89.36553147 15.69936618 -80.90261999 9.46648294 -66.67579651 5.49525452 C-60.93272972 4.18255354 -55.1301004 3.32118574 -49.30079651 2.49525452 C-48.01145203 2.31035461 -48.01145203 2.31035461 -46.69606018 2.12171936 C-31.19004421 0.06146951 -15.61313848 -0.0247508 0 0 Z " fill="#F5F5F5" transform="translate(245.98829650878906,94.87974548339844)"/>
<path d="M0 0 C1.54905029 0.25861816 1.54905029 0.25861816 3.12939453 0.52246094 C51.09390642 8.82204546 95.0038907 29.40452524 131.45117188 61.63476562 C132.83745543 62.856723 134.23813395 64.06230427 135.640625 65.265625 C169.54429774 94.79463029 192.02551457 135.84893078 204.90625 178.4609375 C205.7550801 181.20750917 206.6803327 183.87336331 207.6875 186.5625 C209.42656121 191.64290353 209.88268456 196.94416105 210.47265625 202.25390625 C210.8512601 204.94339582 211.30311958 207.34278268 211.98828125 209.9453125 C218.63328901 235.42245042 217.70438601 269.26925465 210.91796875 294.5546875 C210.1358397 297.4901676 209.45056812 300.41628356 208.80078125 303.3828125 C208.58655518 304.35774658 208.3723291 305.33268066 208.15161133 306.3371582 C207.72830537 308.27002808 207.30743045 310.20343255 206.8894043 312.13745117 C205.81561722 316.95031057 204.56487099 321.51428017 202.74560547 326.09838867 C201.98920858 328.02752271 201.32363748 329.96946105 200.67578125 331.9375 C197.53690822 341.35642371 193.74396531 350.11534661 189.10498047 358.88720703 C187.94899141 361.09753168 186.83382532 363.325431 185.72265625 365.55859375 C159.78317749 417.10178238 116.71367862 453.26782076 65.984375 479.06640625 C49.82139567 487.306022 36.3473125 496.51693775 22.75439453 508.46337891 C19.8355716 511.01988761 16.88591787 513.54024619 13.9375 516.0625 C13.35742188 516.55919189 12.77734375 517.05588379 12.1796875 517.56762695 C11.02090856 518.5596856 9.86189375 519.55146881 8.70263672 520.54296875 C7.58374887 521.50045694 6.46556287 522.45876601 5.34814453 523.41796875 C-1.2858941 529.10941192 -8.01584771 534.63939948 -14.90795898 540.01586914 C-27.63969495 549.94829072 -40.08321598 560.29737282 -51.9765625 571.22265625 C-54 573 -54 573 -57 575 C-59.74978208 574.79376634 -61.43689789 574.44059646 -63.62158203 572.73120117 C-65.36922629 570.53627637 -65.4298691 569.27672421 -65.5546875 566.48828125 C-65.60939209 565.52535156 -65.66409668 564.56242187 -65.72045898 563.5703125 C-65.77145752 562.49523438 -65.82245605 561.42015625 -65.875 560.3125 C-66.66652364 547.44314924 -67.81409577 534.62051086 -69.10821533 521.79232788 C-69.32780838 519.59674343 -69.542121 517.40062446 -69.75115967 515.20401001 C-70.04895382 512.0824671 -70.36402742 508.96312954 -70.68359375 505.84375 C-70.77113419 504.89485397 -70.85867462 503.94595795 -70.9488678 502.9683075 C-71.04236008 502.09382462 -71.13585236 501.21934174 -71.23217773 500.31835938 C-71.34637306 499.17143616 -71.34637306 499.17143616 -71.46287537 498.00134277 C-72.13059845 495.51338617 -72.98479985 494.58097344 -75 493 C-81.01833421 490.65386971 -87.2251406 489.15990502 -93.48754883 487.62133789 C-98.80154982 486.31235859 -104.09471927 484.93911681 -109.375 483.5 C-110.4431897 483.21600342 -110.4431897 483.21600342 -111.53295898 482.92626953 C-117.20411537 481.36465624 -122.57203059 479.2545985 -128 477 C-128.80453613 476.67435059 -129.60907227 476.34870117 -130.43798828 476.01318359 C-164.86618349 462.04121854 -194.5329033 442.00141949 -221 416 C-221.68553955 415.33347412 -222.3710791 414.66694824 -223.07739258 413.98022461 C-227.1687179 409.96014486 -230.9457061 405.8620101 -234.4375 401.3125 C-235.13661499 400.40769897 -235.13661499 400.40769897 -235.84985352 399.48461914 C-254.46007128 375.20531577 -268.69714815 348.13503568 -278 319 C-278.23025879 318.3002002 -278.46051758 317.60040039 -278.69775391 316.87939453 C-281.66499507 307.82092756 -283.82987281 298.64687645 -285.75 289.3125 C-285.96092285 288.30356689 -286.1718457 287.29463379 -286.38916016 286.25512695 C-289.09185756 272.55650848 -289.1865409 258.78794754 -289.18530273 244.87841797 C-289.18749103 242.13623556 -289.20572701 239.39445561 -289.22460938 236.65234375 C-289.25915617 225.9241138 -288.67555337 215.60447911 -287 205 C-286.79685181 203.66654541 -286.79685181 203.66654541 -286.58959961 202.30615234 C-280.04189056 162.02359933 -262.30588396 123.8714999 -237 92 C-236.22914063 91.02417969 -235.45828125 90.04835938 -234.6640625 89.04296875 C-222.51201447 74.02079099 -208.55566859 60.4419309 -193 49 C-192.04480469 48.24976563 -191.08960938 47.49953125 -190.10546875 46.7265625 C-166.69231327 28.47006643 -138.78502432 14.29528713 -110 7 C-108.7521875 6.66355469 -107.504375 6.32710937 -106.21875 5.98046875 C-72.69884641 -2.93541769 -34.32783248 -5.84665312 0 0 Z " fill="#04BA65" transform="translate(944,633)"/>
<path d="M0 0 C23.62499095 -0.03468624 47.24998693 -0.05212574 70.875 -0.0625 C71.83263308 -0.0629343 72.79026615 -0.06336861 73.77691841 -0.06381607 C172.0914268 -0.10706901 270.40527509 0.18018685 381.5358597 0.49097854 C384.75927931 0.50002605 387.98269895 0.5090646 391.20611858 0.51810217 C446.80409278 0.67404472 502.40205297 0.83465912 558 1 C559.70614502 4.41229004 559.16322155 8.31180391 559.16796875 12.06640625 C559.17129715 12.97446518 559.17462555 13.88252411 559.17805481 14.81809998 C559.18312571 16.74567152 559.18546309 18.67325187 559.18530273 20.60083008 C559.18747318 23.52635594 559.20558241 26.45149483 559.22460938 29.37695312 C559.22754661 31.25260288 559.22952919 33.12825443 559.23046875 35.00390625 C559.23765427 35.8698793 559.24483978 36.73585236 559.25224304 37.62806702 C559.22574813 44.80792764 558.64579838 52.27825152 554.625 58.4375 C554.22539063 59.07558594 553.82578125 59.71367187 553.4140625 60.37109375 C551.63683143 62.41834612 550.5710223 63.04679438 548 64 C545.06521323 64.16902104 542.2290388 64.232654 539.296875 64.1953125 C538.45908508 64.1924826 537.62129517 64.18965271 536.75811768 64.18673706 C534.08859837 64.17556349 531.4194175 64.15046421 528.75 64.125 C526.93750485 64.11496654 525.12500444 64.10584133 523.3125 64.09765625 C518.87487007 64.0756334 514.43749237 64.04112304 510 64 C510 64.66 510 65.32 510 66 C457.34611418 66.04605489 404.69223045 66.08115846 352.03832835 66.10213066 C345.78312056 66.10463125 339.52791281 66.10721997 333.27270508 66.10986328 C332.02771582 66.1103879 330.78272657 66.11091252 329.50001036 66.11145304 C309.49768384 66.12009056 289.49536914 66.13582261 269.49304957 66.15430559 C248.8779202 66.17319203 228.2627969 66.18415568 207.64765924 66.18817699 C196.10680605 66.19064457 184.56597746 66.19649305 173.02513313 66.21146011 C123.98237329 66.27316943 74.98554994 66.24347102 25.97947764 64.1219573 C23.06297083 64.00257755 20.146504 63.90727858 17.2289753 63.81677628 C15.4959376 63.7523412 13.7629185 63.68740327 12.02992249 63.62185669 C10.87829106 63.5941174 10.87829106 63.5941174 9.70339435 63.56581771 C6.67325833 63.43596607 4.28062694 63.13312019 1.52651119 61.82665825 C-0.63759891 59.23703454 -0.48219745 57.50204642 -0.45410156 54.15161133 C-0.45379944 52.9505928 -0.45349731 51.74957428 -0.45318604 50.51216125 C-0.43254089 49.21521835 -0.41189575 47.91827545 -0.390625 46.58203125 C-0.38316314 45.2411127 -0.37746994 43.90018324 -0.37347412 42.55924988 C-0.35821299 39.03262134 -0.31892849 35.50665344 -0.2746582 31.98028564 C-0.23371497 28.38082822 -0.21546522 24.78126387 -0.1953125 21.18164062 C-0.15243366 14.12082373 -0.08417745 7.06045503 0 0 Z " fill="#0C1521" transform="translate(281,452)"/>
<path d="M0 0 C205.68996108 -0.19722407 205.68996108 -0.19722407 277.10397339 0.34743118 C280.87911701 0.3750301 284.65426793 0.39880315 288.42944336 0.42160034 C294.20134081 0.45718464 299.97305732 0.50286871 305.74480057 0.55800056 C307.79520709 0.57634617 309.84564443 0.59156601 311.89609909 0.60336113 C314.61695899 0.61990915 317.33739637 0.64866244 320.05810547 0.68115234 C320.84671211 0.68331222 321.63531876 0.68547209 322.44782257 0.68769741 C327.77123997 0.77123997 327.77123997 0.77123997 330 3 C330.4584299 6.89726538 330.3239786 10.82891031 330.3125 14.75 C330.32861328 15.83539062 330.34472656 16.92078125 330.36132812 18.0390625 C330.36644044 26.40281197 328.72557148 31.20295967 323.375 37.6875 C322.66988281 38.54730469 321.96476562 39.40710938 321.23828125 40.29296875 C320.49964844 41.18628906 319.76101563 42.07960938 319 43 C318.27167969 43.90363281 317.54335938 44.80726563 316.79296875 45.73828125 C311.73838839 51.99675465 306.62499974 58.24156048 301 64 C300.05976502 65.04249877 300.05976502 65.04249877 299.10053539 66.10605812 C294.31982502 69.02632396 289.74917565 68.54461983 284.25080872 68.49447632 C283.04738333 68.49930515 281.84395794 68.50413398 280.60406512 68.50910914 C277.26682599 68.5184326 273.93050604 68.5098063 270.59335101 68.49358058 C266.99348762 68.48042104 263.39367828 68.49032459 259.79380798 68.49734497 C252.74382419 68.50742755 245.69402804 68.49614835 238.64406756 68.47764437 C230.4388294 68.45688145 222.23363186 68.45701658 214.02837237 68.45798953 C199.39298008 68.45899076 184.7576752 68.44066626 170.12231445 68.41162109 C155.91038419 68.38343075 141.69853087 68.36928021 127.48657227 68.37060547 C126.61083999 68.37068538 125.73510771 68.37076529 124.8328381 68.37084763 C123.52154184 68.37096869 123.52154184 68.37096869 122.18375474 68.3710922 C106.01559644 68.37247059 89.84747092 68.36070123 73.67932323 68.34278577 C67.95495947 68.33674494 62.23060172 68.3346257 56.50623512 68.33372116 C49.5359699 68.33235923 42.56575992 68.32346237 35.59551815 68.30505554 C32.03682305 68.2957998 28.47819877 68.28973581 24.91949081 68.29224396 C21.06901806 68.29482624 17.21868866 68.28197977 13.36824036 68.26742554 C12.23353784 68.27052274 11.09883532 68.27361995 9.92974788 68.276811 C8.90473098 68.27036211 7.87971408 68.26391322 6.82363605 68.25726891 C5.93400364 68.25586006 5.04437123 68.25445121 4.12778026 68.25299966 C2 68 2 68 0 66 C-0.24050903 63.25387573 -0.24050903 63.25387573 -0.22705078 59.71435547 C-0.22734283 59.07032776 -0.22763489 58.42630005 -0.22793579 57.76275635 C-0.22654074 55.63076373 -0.21097174 53.49911918 -0.1953125 51.3671875 C-0.19158298 49.89031159 -0.18873572 48.41343322 -0.18673706 46.93655396 C-0.17909574 43.04682602 -0.15944308 39.15724712 -0.1373291 35.26757812 C-0.11688135 31.29949968 -0.10773764 27.33139718 -0.09765625 23.36328125 C-0.07619756 15.57545284 -0.04205572 7.78774729 0 0 Z " fill="#0B1420" transform="translate(281,634)"/>
<path d="M0 0 C3.40843206 1.30426319 5.82503253 2.44368774 8.4609375 4.984375 C9.08959717 5.58266113 9.71825684 6.18094727 10.3659668 6.79736328 C11.36043823 7.76391846 11.36043823 7.76391846 12.375 8.75 C13.80564156 10.11755167 15.23663944 11.48473067 16.66796875 12.8515625 C17.39032715 13.54540039 18.11268555 14.23923828 18.85693359 14.95410156 C21.4859421 17.46390918 24.1510536 19.93260552 26.82055664 22.39916992 C32.83305767 27.95721488 38.71866114 33.61502608 44.43823242 39.47509766 C47.03318003 42.11547956 49.68164383 44.60719335 52.50390625 47.00390625 C59.68097076 53.21139705 66.20437411 60.15186726 72.87304688 66.89355469 C74.70489754 68.74366619 76.53988307 70.59062912 78.375 72.4375 C78.9210791 72.99187744 79.4671582 73.54625488 80.02978516 74.11743164 C82.8371901 76.94219761 85.70101367 79.63565762 88.72436523 82.22875977 C94.07797354 86.86235516 99.03750473 91.89319459 104.03515625 96.90234375 C105.08297946 97.94949136 106.1309509 98.99649066 107.17906189 100.04335022 C109.36326988 102.22609326 111.54568332 104.41061025 113.72680664 106.59643555 C116.50253881 109.37786424 119.28273782 112.15477776 122.06430912 114.93036556 C124.22559203 117.08801021 126.38445714 119.24806147 128.54263115 121.40881538 C129.56601321 122.4328577 130.59011961 123.45617674 131.6150074 124.47871208 C136.74377717 129.59828666 141.79804055 134.73887065 146.48887634 140.26869202 C149.32011004 143.51246197 152.42760985 146.48700441 155.5 149.5 C159.93389779 153.89127972 164.29670359 158.27383878 168.328125 163.04296875 C170.51534922 165.60324757 172.78974642 168.07793654 175.0625 170.5625 C176.32707031 171.95662109 176.32707031 171.95662109 177.6171875 173.37890625 C179.07142134 174.97856347 180.53313534 176.57151278 182.0078125 178.15234375 C183.6875 180 183.6875 180 186 183 C185.67 183.99 185.34 184.98 185 186 C154.13188888 186.14698024 123.27120544 185.94450421 92.40526962 185.59428024 C89.58168358 185.56271446 86.75808521 185.53263943 83.93447876 185.50296021 C79.3985412 185.45496329 74.86267218 185.40261997 70.32682037 185.34712219 C68.65221838 185.32713047 66.97760159 185.30833024 65.30297089 185.29090881 C56.29860533 185.19573995 47.30794487 184.97919198 38.31225586 184.56225586 C37.49566529 184.5268422 36.67907473 184.49142855 35.83773899 184.45494175 C24.42409157 183.88001006 12.03548368 182.36810446 3.625 173.9375 C-2.74734649 165.5189274 -1.25851262 153.28025981 -1.15625 143.2421875 C-1.14725697 141.61058982 -1.13911262 139.97898728 -1.13171387 138.34738159 C-1.10712495 133.63640328 -1.06813334 128.92562655 -1.02697754 124.21476746 C-0.98815951 119.58903263 -0.95676822 114.96325317 -0.92472839 110.33746719 C-0.81798974 95.01540558 -0.68918511 79.69357832 -0.55461979 64.37174201 C-0.49283883 57.33118279 -0.43298853 50.29060749 -0.37324238 43.25003076 C-0.25086234 28.83333609 -0.12623677 14.41666141 0 0 Z " fill="#F5F4F5" transform="translate(791,118)"/>
<path d="M0 0 C30.09024937 -0.06843547 60.18049607 -0.12152783 90.27080608 -0.15319599 C93.82311564 -0.15694812 97.37542505 -0.16083108 100.92773438 -0.16479492 C101.98853713 -0.16597532 101.98853713 -0.16597532 103.07077025 -0.16717956 C114.52219246 -0.18023404 125.9735695 -0.20388811 137.42496492 -0.23145839 C149.17486001 -0.25951143 160.92473145 -0.27617604 172.67465866 -0.28226548 C179.27454617 -0.28618054 185.87433123 -0.29539859 192.47418594 -0.31719017 C198.6842328 -0.33752885 204.89413481 -0.34383904 211.10421181 -0.33932304 C213.38508071 -0.34014941 215.66595438 -0.34613052 217.94679451 -0.35761642 C221.05838715 -0.37251927 224.16943132 -0.36896138 227.28103638 -0.36076355 C228.18571407 -0.36950207 229.09039177 -0.3782406 230.02248394 -0.38724393 C236.21265348 -0.34309551 240.5334053 0.67435357 245.1875 5.0625 C247.20678654 8.33513681 248.08234955 11.28614413 249.07421875 14.9765625 C250.40681008 19.32856962 252.19192749 23.48000113 254.01904297 27.64599609 C255.69125096 31.61814946 256.57611424 34.70738406 256 39 C254.90075025 41.40978388 253.80898561 43.51182035 252.4375 45.75 C252.07688477 46.35763184 251.71626953 46.96526367 251.34472656 47.59130859 C248.15739646 52.89467949 244.82776884 58.13326533 241 63 C240.48511269 63.69296268 239.97022537 64.38592535 239.43973541 65.09988689 C235.92724529 67.83548211 232.59218777 67.54427021 228.3236084 67.48774719 C227.43844307 67.49187046 226.55327775 67.49599372 225.64128923 67.50024194 C222.66874985 67.50918721 219.69708813 67.48949365 216.72460938 67.4699707 C214.59573255 67.47047939 212.46685554 67.47273436 210.33798218 67.47660828 C204.54821641 67.48203854 198.75876936 67.46258201 192.9690609 67.43850732 C186.90748452 67.41722913 180.84590955 67.41780646 174.78430176 67.41581726 C164.59540317 67.4093633 154.40662433 67.38809972 144.21777344 67.35668945 C131.16162075 67.31649145 118.10554635 67.29901446 105.04933929 67.28938007 C93.80942843 67.28105592 82.56953398 67.26382141 71.32963753 67.24434257 C68.92160655 67.24030039 66.51357505 67.2365598 64.10554314 67.2331202 C57.23021487 67.22328725 50.35493262 67.20870691 43.47963333 67.1862812 C41.40125061 67.18019559 39.3228624 67.17572519 37.2444725 67.17303848 C6.12906815 67.12906815 6.12906815 67.12906815 0 61 C-0.24050903 58.44369507 -0.24050903 58.44369507 -0.22705078 55.17333984 C-0.22689972 53.95222504 -0.22674866 52.73111023 -0.22659302 51.47299194 C-0.21637903 50.13563882 -0.20594702 48.79828735 -0.1953125 47.4609375 C-0.1915828 46.09616299 -0.18873563 44.73138581 -0.18673706 43.36660767 C-0.17909714 39.77279277 -0.15944572 36.17913927 -0.1373291 32.58538818 C-0.11687832 28.91892683 -0.107737 25.25243943 -0.09765625 21.5859375 C-0.07620003 14.39055138 -0.04205992 7.1952983 0 0 Z " fill="#0C1521" transform="translate(281,821)"/>
<path d="M0 0 C0.79938492 -0.0033284 1.59876984 -0.0066568 2.42237854 -0.01008606 C4.11255319 -0.01513252 5.80273774 -0.01749509 7.49291992 -0.01733398 C10.02735776 -0.01949791 12.56134344 -0.03761501 15.09570312 -0.05664062 C27.18006987 -0.09940326 39.10975415 0.13838066 50.62890625 4.16796875 C52.08741869 4.55836119 53.55087002 4.93096586 55.01953125 5.28125 C70.55951004 9.09660688 70.55951004 9.09660688 77.0625 12.73828125 C79.11956469 13.88422596 81.16037904 14.91140799 83.2890625 15.91015625 C97.02847596 22.40103416 108.6541771 30.63505639 119.62890625 41.16796875 C120.52222656 41.998125 121.41554688 42.82828125 122.3359375 43.68359375 C129.98927439 51.00510764 141.6230904 62.16379207 143 73.12109375 C143.17169693 81.64534122 142.06420175 86.53052842 136.171875 92.69140625 C130.16287594 98.17719431 123.59666701 98.64625072 115.8046875 98.4609375 C105.79857879 97.53786474 100.8096131 90.49287258 94.62890625 83.16796875 C94.04496094 82.46027344 93.46101562 81.75257813 92.859375 81.0234375 C80.72891164 66.53181339 63.61279515 55.76532115 45.62890625 50.16796875 C44.48808594 49.77738281 43.34726562 49.38679687 42.171875 48.984375 C23.16766209 43.11979367 -1.61921033 43.81511105 -20.37109375 50.16796875 C-21.37140625 50.47992187 -22.37171875 50.791875 -23.40234375 51.11328125 C-42.98711799 57.65987713 -59.19065674 70.15996551 -72.12109375 86.04296875 C-76.90798739 91.91899361 -81.64180268 96.70109599 -89.37109375 98.16796875 C-98.03114445 98.80312056 -104.30057618 98.59090398 -111.12109375 92.85546875 C-115.97509181 87.05763773 -117.34732024 81.60907601 -117.37109375 74.16796875 C-116.36587471 67.80158149 -113.11795552 63.2559891 -109.37109375 58.16796875 C-108.80519531 57.39582031 -108.23929688 56.62367188 -107.65625 55.828125 C-92.07891888 35.50843515 -70.03646461 18.10267508 -45.5078125 10.1875 C-42.66122655 9.26227094 -39.98583249 8.17828775 -37.24609375 6.98046875 C-32.60693868 5.07428127 -28.01359887 4.31643816 -23.06640625 3.6015625 C-20.02434402 3.11218727 -17.26826804 2.20267385 -14.37109375 1.16796875 C-9.57510262 0.1725911 -4.87969802 0.00720975 0 0 Z " fill="#09141E" transform="translate(895.37109375,909.83203125)"/>
<path d="M0 0 C5.82099317 4.89492608 10.246937 11.92790879 11.12109375 19.546875 C11.27268351 27.57221545 10.55440971 32.83057294 5.75 39.3125 C5.069375 40.364375 4.38875 41.41625 3.6875 42.5 C-0.97002316 47.67986221 -7.78243924 50.77400821 -14.5703125 51.828125 C-23.14591488 52.11195108 -30.5059094 50.48683768 -37.125 44.875 C-37.82625 44.029375 -38.5275 43.18375 -39.25 42.3125 C-39.95125 41.52875 -40.6525 40.745 -41.375 39.9375 C-45.36693745 34.34878757 -46.81582105 29.26890198 -46.75 22.4375 C-46.74355469 21.73568604 -46.73710938 21.03387207 -46.73046875 20.31079102 C-46.43700356 11.96151319 -43.40958276 7.12592279 -37.5 1.5 C-25.03284914 -8.52032686 -13.5586865 -7.04008722 0 0 Z " fill="#091520" transform="translate(996.25,826.6875)"/>
<path d="M0 0 C7.42907238 4.16106564 12.34329439 9.63538772 15.625 17.5 C16.66571035 26.86639312 16.3835207 35.30626359 10.7734375 43.05859375 C5.04069404 50.03714542 -0.34641996 53.83709016 -9.39453125 54.83203125 C-18.76183713 55.15016617 -24.45111457 53.36718127 -31.625 47.375 C-36.05634715 43.20912526 -38.53573148 39.26072783 -40.375 33.5 C-40.87 32.015 -40.87 32.015 -41.375 30.5 C-42.43989187 21.35714266 -40.4171563 14.76301061 -34.8359375 7.49609375 C-25.44596851 -2.80617081 -12.80776871 -5.84354448 0 0 Z " fill="#09151F" transform="translate(848.375,823.5)"/>
<path d="M0 0 C0 0.33 0 0.66 0 1 C29.37 1 58.74 1 89 1 C89 1.66 89 2.32 89 3 C75.88912652 3.02338141 62.77825817 3.04104447 49.66736794 3.05181217 C43.57657753 3.05698543 37.48580161 3.06397936 31.39501953 3.07543945 C25.49459063 3.08646931 19.59417546 3.09231841 13.69373703 3.09487724 C11.46560831 3.09669591 9.23748016 3.10024498 7.00935745 3.10573006 C-9.0166603 3.14353873 -24.990413 2.72772108 -41 2 C-41 1.67 -41 1.34 -41 1 C-36.92903862 0.8551177 -32.85799505 0.71282555 -28.78686523 0.57275391 C-27.40695863 0.52493298 -26.02707478 0.47645008 -24.6472168 0.42724609 C-16.42798562 0.13466177 -8.22471701 -0.07794914 0 0 Z " fill="#0E1521" transform="translate(345,514)"/>
<path d="M0 0 C11.4791554 -0.03068233 22.95830944 -0.05100568 34.4375 -0.0625 C35.28634892 -0.06335602 36.13519783 -0.06421204 37.00976944 -0.06509399 C66.01889388 -0.09093443 95.00043535 0.19522944 124 1 C124 1.33 124 1.66 124 2 C93.97 2.33 63.94 2.66 33 3 C33 2.67 33 2.34 33 2 C22.11 1.67 11.22 1.34 0 1 C0 0.67 0 0.34 0 0 Z " fill="#575B65" transform="translate(850,303)"/>
<path d="M0 0 C0.66 0.33 1.32 0.66 2 1 C-3.3401277 7.31858117 -9.06097248 13.18156743 -14.9375 19 C-15.81212891 19.87011719 -16.68675781 20.74023438 -17.58789062 21.63671875 C-19.72297449 23.76013549 -21.86037205 25.88116378 -24 28 C-24.99 27.67 -25.98 27.34 -27 27 C-26.57589844 26.5875 -26.15179687 26.175 -25.71484375 25.75 C-22.52050162 22.60480159 -19.46188754 19.42047562 -16.5625 16 C-13.57785086 12.53244133 -10.35227767 9.56559935 -6.8671875 6.609375 C-4.44537851 4.52195805 -2.22485957 2.29438644 0 0 Z " fill="#18212E" transform="translate(703,649)"/>
<path d="M0 0 C0 0.33 0 0.66 0 1 C7.92 1.33 15.84 1.66 24 2 C24 2.33 24 2.66 24 3 C2.30834061 3.10867565 -19.32982521 3.12525697 -41 2 C-41 1.67 -41 1.34 -41 1 C-36.92903862 0.8551177 -32.85799505 0.71282555 -28.78686523 0.57275391 C-27.40695863 0.52493298 -26.02707478 0.47645008 -24.6472168 0.42724609 C-16.42798562 0.13466177 -8.22471701 -0.07794914 0 0 Z " fill="#515862" transform="translate(345,514)"/>
<path d="M0 0 C0 0.33 0 0.66 0 1 C3.96 1.33 7.92 1.66 12 2 C12 2.33 12 2.66 12 3 C-1.57154322 3.07029358 -15.12105342 2.86061021 -28.6875 2.5 C-30.57616622 2.45160181 -32.4648381 2.40342377 -34.35351562 2.35546875 C-38.90241257 2.23950254 -43.45122385 2.12060784 -48 2 C-48 1.67 -48 1.34 -48 1 C-42.61063474 0.85606923 -37.22123097 0.7137108 -31.83178711 0.57275391 C-30.00169782 0.52467433 -28.1716194 0.47617924 -26.34155273 0.42724609 C-23.69778202 0.35663025 -21.05397471 0.28755237 -18.41015625 0.21875 C-17.60353043 0.19687622 -16.7969046 0.17500244 -15.96583557 0.15246582 C-10.64208665 0.01584049 -5.32552762 -0.01861259 0 0 Z " fill="#454C58" transform="translate(970,365)"/>
<path d="M0 0 C1.78059392 0.01005161 3.56119333 0.0191736 5.34179688 0.02734375 C9.66550259 0.04918052 13.98893926 0.08358963 18.3125 0.125 C18.3125 0.455 18.3125 0.785 18.3125 1.125 C14.23625231 2.11050362 10.47560391 2.21359547 6.2890625 2.15234375 C4.92448172 2.13969553 3.55989825 2.12733471 2.1953125 2.11523438 C0.06696979 2.0904805 -2.06122896 2.06251999 -4.18945312 2.02905273 C-6.25912314 1.99860231 -8.32861314 1.98100179 -10.3984375 1.96484375 C-11.62868652 1.94800537 -12.85893555 1.93116699 -14.12646484 1.91381836 C-17.90156684 2.1376949 -21.07414507 3.05344403 -24.6875 4.125 C-28.125 3.75 -28.125 3.75 -30.6875 3.125 C-30.6875 2.795 -30.6875 2.465 -30.6875 2.125 C-20.5317218 -0.44106616 -10.38691634 -0.10250564 0 0 Z " fill="#052927" transform="translate(906.6875,909.875)"/>
<path d="M0 0 C0.99 0.66 1.98 1.32 3 2 C-1.26066025 6.01719395 -1.26066025 6.01719395 -4.6875 5.9375 C-7 5 -7 5 -9 2 C-7.6078125 2.3403125 -7.6078125 2.3403125 -6.1875 2.6875 C-3.03173152 3.36319983 -3.03173152 3.36319983 -1.125 1.5625 C-0.75375 1.046875 -0.3825 0.53125 0 0 Z " fill="#079B63" transform="translate(889,1202)"/>
<path d="M0 0 C3.47775179 1.51553404 5.9557984 3.5773456 8.75 6.125 C9.94882813 7.21167969 9.94882813 7.21167969 11.171875 8.3203125 C11.77515625 8.87460937 12.3784375 9.42890625 13 10 C12.67 10.66 12.34 11.32 12 12 C9.99698881 10.19073245 7.99751914 8.377813 6 6.5625 C5.42765625 6.04623047 4.8553125 5.52996094 4.265625 4.99804688 C2.82480421 3.6858708 1.41014216 2.34509096 0 1 C0 0.67 0 0.34 0 0 Z " fill="#012420" transform="translate(1065,685)"/>
<path d="M0 0 C0.66 0 1.32 0 2 0 C1.71743908 1.93884889 1.4236207 3.87605961 1.125 5.8125 C0.96257812 6.89144531 0.80015625 7.97039063 0.6328125 9.08203125 C0 12 0 12 -2 15 C-1.85930804 12.87465341 -1.71229079 10.74972471 -1.5625 8.625 C-1.48128906 7.44164062 -1.40007812 6.25828125 -1.31640625 5.0390625 C-1 2 -1 2 0 0 Z " fill="#06A15F" transform="translate(1150,938)"/>
<path d="M0 0 C0 0.33 0 0.66 0 1 C-1.15628906 1.19916016 -1.15628906 1.19916016 -2.3359375 1.40234375 C-3.33882812 1.57894531 -4.34171875 1.75554688 -5.375 1.9375 C-6.87160156 2.19853516 -6.87160156 2.19853516 -8.3984375 2.46484375 C-10.96909656 2.87712062 -10.96909656 2.87712062 -13 4 C-15.00800456 3.71887936 -17.01014051 3.38932033 -19 3 C-19 2.67 -19 2.34 -19 2 C-12.56971459 0.67611771 -6.5705166 -0.24794402 0 0 Z " fill="#045339" transform="translate(895,910)"/>
<path d="M0 0 C2.26609984 4.53219967 1.92735976 6.17772925 1 11 C0.01 11.33 -0.98 11.66 -2 12 C-1.34 8.04 -0.68 4.08 0 0 Z " fill="#1B2431" transform="translate(603,812)"/>
<path d="M0 0 C0.66 0.33 1.32 0.66 2 1 C0.02 3.31 -1.96 5.62 -4 8 C-4.99 7.67 -5.98 7.34 -7 7 C-4.69 4.69 -2.38 2.38 0 0 Z " fill="#042B2A" transform="translate(819,826)"/>
<path d="M0 0 C1.39864092 3.17872935 0.89282517 4.30111022 -0.3125 7.6875 C-2 11 -2 11 -4 12 C-2.66666667 8 -1.33333333 4 0 0 Z " fill="#0B9F60" transform="translate(676,775)"/>
<path d="M0 0 C-1.28519565 2.86697492 -2.57129254 4.97607712 -5 7 C-5.66 7 -6.32 7 -7 7 C-3.86206897 0 -3.86206897 0 0 0 Z " fill="#032125" transform="translate(898,1199)"/>
<path d="M0 0 C2.97 0.33 5.94 0.66 9 1 C8.67 1.66 8.34 2.32 8 3 C5.36 2.67 2.72 2.34 0 2 C0 1.34 0 0.68 0 0 Z " fill="#09A261" transform="translate(850,1119)"/>
</svg>
